<?xml version="1.0" encoding="iso-8859-1"?>
<!-- Uploaded to: SVG Repo, www.svgrepo.com, Generator: SVG Repo Mixer Tools -->
<!DOCTYPE svg PUBLIC "-//W3C//DTD SVG 1.1//EN" "http://www.w3.org/Graphics/SVG/1.1/DTD/svg11.dtd">
<svg fill="#000000" version="1.1" id="Capa_1" xmlns="http://www.w3.org/2000/svg" xmlns:xlink="http://www.w3.org/1999/xlink" 
	 width="800px" height="800px" viewBox="0 0 45.805 45.805"
	 xml:space="preserve">
<g>
	<g>
		<path d="M22.903,21.465c-1.57-1.558-4.105-1.554-5.671,0.012c-1.568,1.568-1.568,4.112,0,5.682c0.076,0.077,3.8,3.782,5.171,5.146
			c0.276,0.274,0.724,0.274,1,0c1.371-1.364,5.095-5.069,5.171-5.146c1.568-1.569,1.568-4.113,0-5.682
			C27.009,19.913,24.475,19.908,22.903,21.465z"/>
		<path d="M42.113,6.583c-0.454-0.13-0.93-0.196-1.405-0.197L5.114,6.355c-0.475,0-0.96,0.082-1.414,0.212
			C1.522,7.191-0.002,9.218,0,11.485l0.025,22.866c0.001,1.363,0.532,2.645,1.497,3.607c0.964,0.961,2.245,1.49,3.608,1.489
			l35.54,0.001c1.362,0.001,2.645-0.527,3.607-1.488c0.966-0.963,1.498-2.244,1.5-3.605l0.027-22.863
			C45.809,9.226,44.291,7.207,42.113,6.583z M3.841,32.902L3.816,13.035l9.1,10.416L3.841,32.902z M6.522,35.676l8.668-9.051
			c-0.851-1.807-0.646-3.99,0.615-5.615c-4.335-4.954-9.39-10.756-9.39-10.756h32.969c0,0-5.071,5.776-9.403,10.73
			c1.279,1.629,1.49,3.827,0.633,5.645l8.688,9.047H6.522z M41.959,32.902l-9.074-9.451l9.1-10.416L41.959,32.902z"/>
	</g>
</g>
</svg>